<svg xmlns="http://www.w3.org/2000/svg" viewBox="0 0 256 256" aria-hidden="true">
  <path fill="#5865F2" d="M170.9 76.9c-9.6-4.4-19.8-7.6-30.4-9.6-1.4 2.6-3 5.8-4.1 8.5-11.6-1.8-23.1-1.8-34.6 0-1.1-2.7-2.8-5.9-4.2-8.5-10.6 2-20.8 5.2-30.4 9.6-19.2 28.7-24.4 56.7-21.8 84.3 12.7 9.3 25 15 37.1 18.8 3-4 5.7-8.3 7.8-12.9-4.2-1.6-8.2-3.6-12-5.9 1-0.7 1.9-1.4 2.8-2.1 23 10.7 47.9 10.7 70.7 0 0.9 0.7 1.9 1.4 2.8 2.1-3.8 2.3-7.8 4.3-12 5.9 2.1 4.6 4.8 8.9 7.8 12.9 12.1-3.8 24.4-9.5 37.1-18.8 2.9-31.9-4.8-59.7-21.6-84.3zM98.7 147.5c-7.2 0-13.1-6.7-13.1-14.9 0-8.3 5.8-14.9 13.1-14.9 7.3 0 13.2 6.7 13.1 14.9 0 8.3-5.8 14.9-13.1 14.9zm58.6 0c-7.2 0-13.1-6.7-13.1-14.9 0-8.3 5.8-14.9 13.1-14.9 7.3 0 13.2 6.7 13.1 14.9 0 8.3-5.8 14.9-13.1 14.9z"/>
</svg>
